<?xml version="1.0" encoding="iso-8859-1"?>
<!-- Generator: Adobe Illustrator 19.0.0, SVG Export Plug-In . SVG Version: 6.00 Build 0)  -->
<svg version="1.1" id="Layer_1" xmlns="http://www.w3.org/2000/svg" xmlns:xlink="http://www.w3.org/1999/xlink" x="0px" y="0px"
	 viewBox="0 0 495.65 495.65" style="enable-background:new 0 0 495.65 495.65;" xml:space="preserve">
<g>
	<g>
		<path d="M491.865,242.145c-3.47-5.205-86.77-127.44-244.04-127.44S7.255,236.94,3.785,242.145L0,247.825l3.785,5.68
			c3.47,5.205,86.77,127.44,244.04,127.44s240.57-122.235,244.04-127.44l3.785-5.68L491.865,242.145z M25.005,247.815
			c13.289-17.269,58.124-69.334,131.043-96.177c-25.413,24.258-41.343,58.364-41.343,96.187c0,37.769,15.883,71.836,41.232,96.086
			C83.208,317.031,38.316,265.049,25.005,247.815z M247.825,360.465c-62.11,0-112.64-50.53-112.64-112.64
			s50.53-112.64,112.64-112.64s112.64,50.53,112.64,112.64S309.935,360.465,247.825,360.465z M339.602,344.012
			c25.413-24.258,41.343-58.364,41.343-96.187c0-37.769-15.883-71.836-41.232-96.086c72.73,26.88,117.621,78.862,130.932,96.096
			C457.356,265.104,412.521,317.169,339.602,344.012z"/>
	</g>
</g>
<g>
	<g>
		<path d="M247.825,196.625c-28.23,0-51.2,22.97-51.2,51.2s22.97,51.2,51.2,51.2s51.2-22.97,51.2-51.2
			S276.055,196.625,247.825,196.625z M247.825,278.545c-16.94,0-30.72-13.78-30.72-30.72s13.78-30.72,30.72-30.72
			s30.72,13.78,30.72,30.72S264.765,278.545,247.825,278.545z"/>
	</g>
</g>
<g>
	<g>
		<rect x="237.585" y="2.065" width="20.48" height="71.68"/>
	</g>
</g>
<g>
	<g>
		<rect x="373.264" y="70.877" transform="matrix(0.4999 -0.8661 0.8661 0.4999 134.3308 394.8779)" width="71.68" height="20.48"/>
	</g>
</g>
<g>
	<g>
		<rect x="76.302" y="45.278" transform="matrix(0.866 -0.5 0.5 0.866 -28.9641 54.1357)" width="20.48" height="71.68"/>
	</g>
</g>
<g>
	<g>
		<rect x="237.585" y="421.905" width="20.48" height="71.68"/>
	</g>
</g>
<g>
	<g>
		
			<rect x="398.866" y="378.688" transform="matrix(0.8661 -0.4999 0.4999 0.8661 -152.4401 260.037)" width="20.48" height="71.68"/>
	</g>
</g>
<g>
	<g>
		<rect x="50.66" y="404.288" transform="matrix(0.4999 -0.8661 0.8661 0.4999 -315.7534 282.2119)" width="71.68" height="20.48"/>
	</g>
</g>
<g>
</g>
<g>
</g>
<g>
</g>
<g>
</g>
<g>
</g>
<g>
</g>
<g>
</g>
<g>
</g>
<g>
</g>
<g>
</g>
<g>
</g>
<g>
</g>
<g>
</g>
<g>
</g>
<g>
</g>
</svg>
