<svg id="Capa_1" enable-background="new 0 0 512 512" height="512" viewBox="0 0 512 512" width="512" xmlns="http://www.w3.org/2000/svg"><g><path d="m512 256c0-126.763-102.585-229.367-229.367-229.367h-53.266c-126.763 0-229.367 102.584-229.367 229.367 0 26.076 4.359 51.688 12.956 76.127 1.375 3.906 5.657 5.955 9.564 4.586 3.908-1.375 5.961-5.656 4.586-9.564-8.033-22.834-12.106-46.773-12.106-71.149 0-118.475 95.876-214.367 214.367-214.367 118.475 0 214.367 95.876 214.367 214.367 0 118.474-95.876 214.367-214.367 214.367-81.614 0-154.541-45.947-190.814-116.582-1.892-3.686-6.412-5.138-10.098-3.246-3.685 1.893-5.138 6.413-3.246 10.098 38.868 75.687 116.973 124.73 204.158 124.73h53.266c125.879 0 229.367-101.785 229.367-229.367zm-85.498 158.901h-31.741c11.973-12.449 22.382-26.017 31.126-40.467h35.449c-9.845 14.83-21.518 28.407-34.834 40.467zm7.71-55.467c6.553-12.946 11.837-26.487 15.804-40.467h37.63c-4.296 14.051-10.046 27.598-17.156 40.467zm57.402-55.467h-37.891c2.794-13.2 4.438-26.729 4.876-40.467h38.257c-.461 13.521-2.181 27.066-5.242 40.467zm5.243-55.467h-38.257c-.439-13.739-2.082-27.267-4.876-40.467h37.914c2.995 13.17 4.749 26.707 5.219 40.467zm-9.252-55.467h-37.589c-3.967-13.979-9.25-27.521-15.804-40.467h36.223c7.112 12.885 12.866 26.448 17.17 40.467zm-26.217-55.466h-35.5c-8.744-14.45-19.153-28.017-31.126-40.467h31.768c13.103 11.894 24.856 25.438 34.858 40.467zm-53.35-55.467h-29.09c-18.192-15.697-38.474-28.261-60.175-37.444 32.304 5.454 62.712 18.21 89.265 37.444zm-29.091 347.801h29.09c-26.552 19.233-56.96 31.99-89.264 37.444 21.7-9.184 41.982-21.748 60.174-37.444z"/><path d="m352.983 137.586c2.863 2.991 7.613 3.093 10.604.227 2.991-2.865 3.093-7.613.227-10.604-35.463-37.011-83.21-57.394-134.446-57.394-102.663.001-186.185 83.523-186.185 186.185s83.522 186.184 186.185 186.184 186.183-83.522 186.183-186.184c0-37.419-11.06-73.509-31.984-104.365-2.324-3.428-6.988-4.325-10.416-1.998-3.429 2.324-4.323 6.988-1.998 10.416 19.232 28.363 29.398 61.541 29.398 95.947 0 94.391-76.793 171.184-171.184 171.184-94.392 0-171.185-76.793-171.185-171.184 0-94.392 76.793-171.185 171.185-171.185 47.107.001 91.008 18.742 123.616 52.771z"/><path d="m343.658 230.142c-1.471-4.524-5.091-7.963-9.684-9.198l-59.342-15.968-33.525-51.505c-2.595-3.986-6.984-6.366-11.74-6.366-4.757 0-9.146 2.38-11.741 6.366l-33.525 51.505-59.34 15.968c-4.594 1.235-8.214 4.674-9.684 9.197-1.47 4.524-.563 9.434 2.427 13.135l38.623 47.799-3.151 61.371c-.244 4.751 1.908 9.257 5.756 12.053 3.849 2.794 8.797 3.45 13.241 1.751l57.394-21.963 13.478 5.158c3.868 1.477 8.205-.456 9.686-4.324 1.48-3.869-.456-8.205-4.324-9.686l-13.832-5.293c-3.228-1.233-6.784-1.233-10.013 0l-56.327 21.554 3.093-60.231c.177-3.454-.923-6.836-3.095-9.522l-37.904-46.909 58.243-15.672c3.337-.901 6.213-2.991 8.096-5.885l32.9-50.546 32.9 50.545c1.884 2.895 4.759 4.985 8.101 5.887l58.238 15.671-37.903 46.909c-2.173 2.688-3.271 6.069-3.095 9.523l3.092 60.23-14.381-5.504c-3.869-1.479-8.204.457-9.686 4.324-1.48 3.869.456 8.205 4.324 9.686l15.805 6.048c4.433 1.696 9.385 1.051 13.241-1.752 3.849-2.796 5.999-7.302 5.755-12.052l-3.15-61.371 38.623-47.799c2.988-3.701 3.895-8.611 2.426-13.134z"/></g></svg>