<svg id="Layer_1" enable-background="new 0 0 68 68" height="512" viewBox="0 0 68 68" width="512" xmlns="http://www.w3.org/2000/svg"><g><path d="m63.53144 44.66692c-1.39996-.98004-3.04999-1.34003-4.51001-1.66003-.53998-.12-1.07996.23004-1.19.77002-.12.53998.22003 1.07001.76001 1.19 1.34003.28998 2.72003.58997 3.79004 1.33997.82996.57001 1.62 1.68005 1.38 2.75-.34003 1.54004-2.53003 2.22003-3.82001 2.49005-4.5.94995-9.25.90997-13.85004.87-2.65997-.02002-5.40997-.04004-8.10999.12-2 .12-4.08997.38995-5.82001 1.51001-1.78998 1.15997-3.21997 3.62994-2.37 5.94995.16998.44.39001.83002.60999 1.20001.28003.47998.53003.89001.54004 1.27002.01996.5-.42004 1-.85004 1.26001-.59998.35998-1.37.51001-2.16998.63995-7.06 1.15002-14.77997 1.18005-23.54999.10004.35999-1.82.98999-3.79004 1.92999-5.97998.09998 0 .20001.00995.31.00995 1.84003 0 3.90002-.22998 6.12-.67999 5.85998-1.16998 11.72003-3.79999 16.95001-7.59998 1.89996-1.37 3.76001-2.81 5.52997-4.29004.32001-.25995.44-.69995.31-1.08997-.12994-.39001-.48999-.66003-.90997-.66998-1.09998-.05005-2.48999-.20001-3.98999-.62 2.83002-.17004 6.48999-.74005 9.82001-2.31.09998-.05005.19-.11005.26996-.18005 3.07001-2.92999 5.94-6.04999 8.52002-9.25995.23999-.30005.28998-.71002.12-1.05005-.15997-.34998-.5-.57001-.89001-.57996-1.21997-.02002-3.21997-.19-5.40997-.95001 2.85999-.29004 6.76001-.85004 9.40002-1.92999.17999-.08002.32996-.20001.44-.36005 3.37994-4.81995 6.16998-9.81995 8.29999-14.85999.12-.27997.09998-.59998-.04004-.85999-.14996-.27002-.39996-.46002-.69995-.51001-.83002-.14996-1.65002-.25-2.44-.29999 1.31-.40002 2.50995-.57001 3.47998-.63.39001-.02997.72998-.27997.87-.65002 1.38-3.72998 1.83002-5.96997 1.84003-6.06995.09998-.47003-.16003-.94-.60004-1.11005-.28998-.12-7.13-2.78998-17.70996.23004-.19.04999-.36005.15997-.48004.31-1.39001 1.63-2.51001 3.60999-3.34998 5.37.08002-.95001.23999-1.92004.45996-2.89001.09003-.35999-.03998-.73999-.32996-.98999-.28003-.23999-.67999-.29999-1.03003-.16003-3.81 1.59003-7.62 3.77002-11.29999 6.49005-.12.07996-.21002.19-.28003.31-1.27997 2.25995-1.91998 5.14996-2.23999 7.56995-.25-1.10999-.40997-2.25995-.47998-3.45996-.02002-.38-.26001-.71002-.60999-.85999-.35004-.15002-.76001-.09003-1.04004.15997-2.19 1.90002-4.41998 4.07001-6.63 6.45001-.04999.06-.09998.12-.12994.19-1.29004 2.26996-1.94 5.16998-2.26001 7.59998-.15002-.65997-.27002-1.33997-.35004-2.03998-.04999-.40002-.32996-.72998-.71997-.84003-.38-.10999-.79999.02002-1.04999.33002-2.48004 3.04999-4.95001 6.41998-7.34003 10.02002-2.37 3.53998-3.86999 7.39996-4.34998 11.13995-.79004 6.18005 1.15997 9.55005 2.09998 10.78003-1.20001 2.78998-1.96002 5.27002-2.27002 7.55999-.07996.53998.30005 1.04999.85004 1.12.03998.01001.07001.01001.10999.01001 4.67999.62 9.07001.92999 13.22998.92999 4.16003 0 8.09003-.31 11.84003-.92999.96002-.15002 1.97998-.34998 2.88-.90002 1.15998-.69995 1.85999-1.86999 1.82001-3.03997-.03003-.89001-.45001-1.59003-.81-2.22003-.19-.31-.36005-.59998-.46002-.87994-.47998-1.29004.42999-2.83002 1.58002-3.57001 1.39996-.91003 3.23999-1.10004 4.84998-1.19 2.64001-.16003 5.35004-.14001 7.97003-.12 4.69995.03998 9.57001.07996 14.28998-.91003 3.07001-.64996 4.91998-2.03998 5.34998-4.01996.43999-1.98005-.77998-3.85005-2.18001-4.82002zm-59.16998 2.44995c.45001-3.42999 1.84003-6.98999 4.03003-10.27997 1.91998-2.88 3.87994-5.59998 5.84998-8.14001.39001 1.70001.97998 3.31 1.76001 4.81.20996.41003.67999.63 1.13.51001.44995-.12.76001-.52997.75-.98999 0-.07001-.09003-7.07001 2.25-11.28003 1.63995-1.76996 3.29999-3.41998 4.92999-4.90997.33997 2.34998 1.02997 4.54999 2.08002 6.56.20996.40997.67999.63 1.12994.51001.45001-.10999.76001-.52002.76001-.98004 0-.06995-.07996-6.92999 2.19-11.14996 2.94-2.16003 5.96002-3.95001 9-5.35999-.32001 2.15997-.29999 4.29999.04999 6.35999.08002.46002.46002.79999.93005.83002.41998.02997.87994-.26001 1.01996-.71002.01001-.04999 1.65002-5.39001 4.51001-8.89001 7.72003-2.13 13.31-1.02997 15.31-.46997-.21997.85999-.64001 2.33997-1.33997 4.27997-2.10004.22003-4.97003.91003-7.72003 2.85004-.37.26996-.52002.75-.34998 1.17999.15997.42999.60999.70001 1.04999.63.02997 0 2.47998-.29004 5.14996 0-1.96997 4.41998-4.44995 8.81-7.40997 13.06-4.27997 1.63-12.10999 1.95001-12.19 1.95001-.44.01996-.82001.31995-.92999.73999-.10999.41998.06.87.42999 1.09998 2.73999 1.76001 5.59003 2.45001 7.71002 2.71002-2.16003 2.57001-4.51001 5.07996-7 7.45996-6.04999 2.78003-13.46002 2.02002-13.54004 2.01001-.45996-.03998-.88995.23004-1.04999.66998-.14996.43005.02002.92004.41003 1.17004 2.32996 1.5 4.75 2.21997 6.79999 2.56-1.16004.91998-2.35004 1.82001-3.54999 2.69-5 3.63-10.59003 6.14996-16.18005 7.26001-1.84998.38-3.54999.57996-5.10999.62 13.15002-27.25 34.92004-35.37 35.14001-35.45001.52002-.19.78998-.76001.59998-1.28003-.17999-.51996-.75995-.78998-1.27997-.59998-.22998.08002-22.67999 8.40997-36.21002 36.35999-.76-1.39999-1.65996-4.08004-1.10997-8.39004z"/></g></svg>