<svg id="Capa_1" enable-background="new 0 0 512 512" height="512" viewBox="0 0 512 512" width="512" xmlns="http://www.w3.org/2000/svg"><g><path d="m340.104 313.749c-2.211-1.367-4.972-1.491-7.297-.328l-69.307 34.653v-228.348c0-4.142-3.358-7.5-7.5-7.5s-7.5 3.358-7.5 7.5v228.349l-17.064-8.532v-258.9c0-9.838 2.58-19.553 7.461-28.096l17.103-29.93 17.104 29.93c4.881 8.543 7.461 18.258 7.461 28.096v227.494c0 4.142 3.358 7.5 7.5 7.5s7.5-3.358 7.5-7.5v-227.494c0-12.444-3.263-24.732-9.438-35.538l-23.615-41.326c-1.336-2.337-3.821-3.779-6.512-3.779s-5.176 1.442-6.512 3.779l-23.615 41.327c-6.174 10.805-9.438 23.094-9.438 35.538v251.399l-37.243-18.621c-2.326-1.164-5.087-1.038-7.297.328-2.211 1.367-3.557 3.781-3.557 6.38v30.172c0 8.971 4.984 17.036 13.009 21.048l7.17 3.584c3.705 1.852 8.209.35 10.062-3.355 1.852-3.705.35-8.209-3.355-10.062l-7.169-3.584c-2.909-1.455-4.716-4.379-4.716-7.632v-18.037l69.307 34.653c2.111 1.056 4.597 1.056 6.708 0l69.307-34.653v18.037c0 3.253-1.807 6.177-4.716 7.632l-60.543 30.271c-4.636 2.317-10.168 2.317-14.802 0l-24.79-12.395c-3.706-1.854-8.21-.351-10.062 3.354-1.853 3.705-.351 8.21 3.354 10.062l15.366 7.683v69.259c-9.308 3.139-16.032 11.946-16.032 22.3 0 12.976 10.557 23.532 23.532 23.532h32.064c12.976 0 23.532-10.557 23.532-23.532 0-10.354-6.724-19.16-16.032-22.3v-69.259l51.121-25.56c8.024-4.012 13.008-12.077 13.008-21.048v-30.172c0-2.598-1.346-5.012-3.557-6.379zm-84.104 91.185c2.875 0 5.747-.398 8.532-1.176v61.177h-17.064v-61.177c2.785.778 5.657 1.176 8.532 1.176zm16.032 92.066h-32.064c-4.705 0-8.532-3.828-8.532-8.532s3.828-8.532 8.532-8.532h32.064c4.705 0 8.532 3.828 8.532 8.532s-3.827 8.532-8.532 8.532z"/></g></svg>