<?xml version="1.0" encoding="iso-8859-1"?>
<!-- Generator: Adobe Illustrator 19.0.0, SVG Export Plug-In . SVG Version: 6.00 Build 0)  -->
<svg version="1.1" id="Layer_1" xmlns="http://www.w3.org/2000/svg" xmlns:xlink="http://www.w3.org/1999/xlink" x="0px" y="0px"
	 viewBox="0 0 503.467 503.467" style="enable-background:new 0 0 503.467 503.467;" xml:space="preserve">
<g transform="translate(1 1)">
	<g>
		<g>
			<path d="M412.013,11.8c1.707-2.56,1.707-5.973,0-8.533S407.747-1,404.333-1h-307.2c-3.413,0-5.973,1.707-7.68,4.267
				s-1.707,5.973,0,8.533c0.853,0.853,24.747,40.96,24.747,106.667v58.88c0,2.56-3.413,52.907,30.72,90.453
				c17.621,18.88,41.748,30.789,71.68,35.745v36.788c-14.507,0-25.6,11.093-25.6,25.6c0,14.469,11.037,25.54,25.488,25.597
				c-1.524,56.477-18.435,58.108-31.462,59.736h-2.56c-0.324,0-0.621,0-0.853,0c-0.037,0.006-0.071,0.016-0.107,0.023
				c-14.032,0.479-24.639,11.393-24.639,25.577c0,14.507,11.093,25.6,25.6,25.6H319c14.507,0,25.6-11.093,25.6-25.6
				c0-14.188-10.614-25.105-24.652-25.577c-0.032-0.007-0.062-0.016-0.094-0.023c-0.274,0-0.551,0-0.853,0h-2.56
				c-13.027-1.628-29.937-3.259-31.462-59.736c14.451-0.057,25.488-11.128,25.488-25.597c0-14.507-11.093-25.6-25.6-25.6v-36.788
				c29.932-4.956,54.059-16.865,71.68-35.745c34.133-37.547,30.72-87.893,30.72-89.6v-59.733
				C387.267,52.76,412.013,11.8,412.013,11.8z M319,468.333c5.12,0,8.533,3.413,8.533,8.533S324.12,485.4,319,485.4H182.467
				c-5.12,0-8.533-3.413-8.533-8.533s3.413-8.533,8.533-8.533H319z M219.16,451.267c7.68-11.093,13.653-29.013,14.507-59.733H267.8
				c0.853,30.72,5.973,48.64,14.507,59.733H219.16z M293.4,365.933c0,5.12-3.413,8.533-8.533,8.533h-8.533h-51.2H216.6
				c-5.12,0-8.533-3.413-8.533-8.533s3.413-8.533,8.533-8.533h68.267C289.987,357.4,293.4,360.813,293.4,365.933z M267.8,306.2
				v34.133h-34.133V306.2H267.8z M343.747,255.853c-20.48,22.187-51.2,33.28-93.013,33.28c-40.96,0-72.533-11.093-93.013-33.28
				c-29.867-31.573-26.453-76.8-26.453-77.653v-59.733c0-48.64-11.947-84.48-20.48-102.4H390.68
				c-8.533,17.92-20.48,53.76-20.48,102.4v60.587C370.2,179.053,373.613,223.427,343.747,255.853z"/>
			<path d="M165.4,135.533c5.12,0,8.533-3.413,8.533-8.533c0-30.72-2.56-58.027-8.533-79.36c-1.707-4.267-5.973-6.827-11.093-5.973
				c-4.267,1.707-6.827,5.973-5.973,11.093c5.973,19.627,8.533,45.227,8.533,74.24C156.867,132.12,160.28,135.533,165.4,135.533z"/>
			<path d="M259.267,246.467c-31.573,0-54.613-7.68-68.267-22.187c-18.773-20.48-17.067-53.76-17.067-53.76
				c0.853-5.12-2.56-9.387-7.68-9.387c-5.12-0.853-9.387,2.56-9.387,7.68c0,0.853-2.56,40.96,22.187,66.56
				c17.067,18.773,43.52,28.16,80.213,28.16c5.12,0,8.533-3.413,8.533-8.533S264.387,246.467,259.267,246.467z"/>
		</g>
	</g>
</g>
<g>
</g>
<g>
</g>
<g>
</g>
<g>
</g>
<g>
</g>
<g>
</g>
<g>
</g>
<g>
</g>
<g>
</g>
<g>
</g>
<g>
</g>
<g>
</g>
<g>
</g>
<g>
</g>
<g>
</g>
</svg>
