<?xml version="1.0" encoding="iso-8859-1"?>
<!-- Generator: Adobe Illustrator 19.0.0, SVG Export Plug-In . SVG Version: 6.00 Build 0)  -->
<svg version="1.1" id="Layer_1" xmlns="http://www.w3.org/2000/svg" xmlns:xlink="http://www.w3.org/1999/xlink" x="0px" y="0px"
	 viewBox="0 0 512 512" style="enable-background:new 0 0 512 512;" xml:space="preserve">
<g>
	<g>
		<path d="M256.032,253.99c-23.59,0-42.781,19.192-42.781,42.782c0,23.59,19.192,42.782,42.781,42.782
			c23.59,0,42.782-19.191,42.782-42.782C298.814,273.182,279.622,253.99,256.032,253.99z M256.031,323.385
			c-14.674,0-26.612-11.938-26.612-26.613c0-14.674,11.938-26.613,26.612-26.613c14.674,0,26.613,11.939,26.613,26.613
			C282.644,311.446,270.706,323.385,256.031,323.385z"/>
	</g>
</g>
<g>
	<g>
		<path d="M131.974,281.174c-14.281,0-25.899,11.619-25.899,25.9c0,14.281,11.618,25.9,25.899,25.9c14.281,0,25.9-11.619,25.9-25.9
			C157.874,292.792,146.255,281.174,131.974,281.174z M131.973,316.805c-5.365,0-9.73-4.365-9.73-9.731
			c0-5.366,4.365-9.731,9.73-9.731c5.367,0,9.731,4.365,9.731,9.731S137.339,316.805,131.973,316.805z"/>
	</g>
</g>
<g>
	<g>
		<path d="M380.09,281.174c-14.281,0-25.9,11.619-25.9,25.9c0,14.281,11.619,25.9,25.9,25.9s25.899-11.619,25.899-25.9
			C405.989,292.792,394.372,281.174,380.09,281.174z M380.09,316.805c-5.366,0-9.731-4.365-9.731-9.731
			c0-5.366,4.365-9.731,9.731-9.731c5.366,0,9.73,4.365,9.73,9.731S385.455,316.805,380.09,316.805z"/>
	</g>
</g>
<g>
	<g>
		<path d="M494.185,282.473V130.082c0-3.267-1.966-6.213-4.984-7.466c-3.019-1.254-6.491-0.567-8.806,1.739l-39.422,39.28
			l-54.361-72.737c-1.455-1.947-3.708-3.136-6.135-3.237c-2.43-0.113-4.774,0.894-6.386,2.71l-65.56,73.854l-47.295-40.179
			c-3.017-2.564-7.45-2.564-10.467,0l-47.295,40.179l-65.56-73.854c-1.612-1.817-3.942-2.821-6.387-2.71
			c-2.427,0.102-4.681,1.291-6.135,3.237l-54.361,72.737l-39.422-39.28c-2.314-2.306-5.792-2.993-8.806-1.739
			c-3.018,1.253-4.984,4.199-4.984,7.466v152.391C7.483,285.878,0,295.615,0,307.073c0,11.458,7.483,21.197,17.815,24.601v36.57
			v48.02c0,4.465,3.619,8.084,8.084,8.084h354.774c4.466,0,8.084-3.62,8.084-8.084c0-4.465-3.618-8.084-8.084-8.084H33.984v-31.852
			h71.111c4.466,0,8.084-3.62,8.084-8.084c0-4.465-3.618-8.084-8.084-8.084H33.984v-28.478c0.071-0.024,0.139-0.055,0.21-0.079
			c0.535-0.181,1.063-0.376,1.581-0.591c0.047-0.019,0.097-0.037,0.144-0.057c0.546-0.231,1.081-0.484,1.609-0.75
			c0.119-0.06,0.237-0.12,0.355-0.182c0.517-0.272,1.027-0.556,1.523-0.86c0.07-0.043,0.138-0.089,0.208-0.134
			c0.454-0.285,0.896-0.583,1.33-0.894c0.092-0.066,0.184-0.129,0.276-0.196c0.463-0.342,0.915-0.698,1.355-1.07
			c0.096-0.081,0.19-0.165,0.285-0.247c0.423-0.366,0.835-0.744,1.233-1.137c0.029-0.028,0.059-0.055,0.087-0.083
			c0.415-0.414,0.812-0.846,1.198-1.287c0.086-0.099,0.172-0.197,0.259-0.298c0.375-0.441,0.738-0.892,1.083-1.358
			c0.053-0.071,0.102-0.144,0.154-0.217c0.313-0.431,0.612-0.873,0.899-1.324c0.057-0.089,0.116-0.178,0.172-0.268
			c0.305-0.494,0.592-0.998,0.864-1.513c0.059-0.112,0.115-0.224,0.172-0.337c0.264-0.518,0.516-1.043,0.747-1.581
			c0.009-0.019,0.017-0.038,0.026-0.057c0.234-0.551,0.443-1.116,0.639-1.685c0.042-0.124,0.085-0.246,0.126-0.371
			c0.184-0.564,0.352-1.134,0.498-1.713c0.024-0.094,0.042-0.188,0.065-0.281c0.128-0.535,0.239-1.077,0.334-1.624
			c0.017-0.101,0.038-0.202,0.054-0.303c0.096-0.597,0.168-1.201,0.222-1.811c0.012-0.133,0.021-0.265,0.03-0.398
			c0.046-0.63,0.078-1.262,0.078-1.903c0-0.64-0.031-1.274-0.078-1.902c-0.01-0.133-0.018-0.265-0.03-0.398
			c-0.054-0.609-0.126-1.214-0.222-1.81c-0.016-0.102-0.037-0.204-0.055-0.305c-0.095-0.547-0.205-1.087-0.333-1.621
			c-0.023-0.094-0.042-0.19-0.066-0.284c-0.146-0.579-0.314-1.148-0.498-1.711c-0.041-0.125-0.084-0.249-0.126-0.373
			c-0.196-0.569-0.404-1.132-0.638-1.683c-0.009-0.021-0.018-0.041-0.028-0.061c-0.229-0.536-0.481-1.06-0.744-1.576
			c-0.058-0.113-0.115-0.227-0.175-0.341c-0.272-0.514-0.558-1.018-0.863-1.51c-0.057-0.092-0.116-0.181-0.175-0.272
			c-0.286-0.449-0.584-0.89-0.897-1.32c-0.053-0.072-0.102-0.147-0.155-0.219c-0.345-0.466-0.707-0.916-1.082-1.357
			c-0.085-0.1-0.172-0.199-0.259-0.299c-0.386-0.441-0.783-0.873-1.198-1.287c-0.028-0.028-0.058-0.055-0.087-0.083
			c-0.398-0.393-0.811-0.771-1.233-1.137c-0.095-0.082-0.188-0.165-0.284-0.246c-0.44-0.371-0.891-0.729-1.356-1.07
			c-0.091-0.067-0.183-0.13-0.275-0.195c-0.435-0.312-0.88-0.612-1.336-0.897c-0.068-0.042-0.134-0.087-0.203-0.129
			c-0.497-0.305-1.008-0.591-1.526-0.862c-0.116-0.06-0.234-0.121-0.351-0.18c-0.528-0.266-1.063-0.521-1.61-0.751
			c-0.047-0.021-0.097-0.038-0.144-0.057c-0.518-0.214-1.046-0.41-1.58-0.591c-0.072-0.024-0.14-0.055-0.212-0.079v-132.92
			l32.233,32.117l59.941,59.725c0.192,0.191,0.39,0.369,0.596,0.537c0.071,0.058,0.146,0.108,0.219,0.163
			c0.137,0.105,0.274,0.21,0.416,0.305c0.088,0.059,0.181,0.11,0.272,0.165c0.131,0.08,0.261,0.162,0.396,0.234
			c0.099,0.053,0.201,0.097,0.301,0.146c0.132,0.064,0.262,0.127,0.396,0.183c0.105,0.043,0.211,0.081,0.318,0.12
			c0.134,0.05,0.266,0.099,0.402,0.14c0.108,0.033,0.218,0.06,0.327,0.089c0.137,0.037,0.275,0.072,0.413,0.1
			c0.109,0.023,0.218,0.04,0.328,0.058c0.141,0.024,0.282,0.045,0.424,0.061c0.109,0.012,0.218,0.02,0.328,0.028
			c0.143,0.01,0.287,0.018,0.43,0.02c0.048,0.001,0.097,0.006,0.144,0.006c0.032,0,0.064-0.008,0.096-0.009
			c0.41-0.005,0.818-0.039,1.224-0.106c0.054-0.009,0.107-0.02,0.161-0.03c0.412-0.077,0.818-0.181,1.217-0.322
			c0.042-0.015,0.083-0.033,0.126-0.05c0.407-0.152,0.806-0.333,1.19-0.553c0.025-0.014,0.048-0.031,0.073-0.046
			c0.398-0.234,0.783-0.5,1.145-0.808L256,140.813l118.902,101.012c0.362,0.307,0.746,0.572,1.143,0.806
			c0.026,0.015,0.052,0.033,0.078,0.049c0.382,0.219,0.777,0.398,1.181,0.549c0.046,0.017,0.091,0.038,0.137,0.054
			c0.394,0.139,0.797,0.243,1.204,0.319c0.058,0.011,0.116,0.024,0.175,0.033c0.401,0.066,0.805,0.099,1.21,0.105
			c0.035,0.001,0.069,0.009,0.104,0.009c0.052,0,0.103-0.006,0.156-0.008c0.135-0.002,0.269-0.01,0.404-0.019
			c0.117-0.008,0.234-0.017,0.351-0.03c0.135-0.015,0.268-0.036,0.402-0.058c0.116-0.019,0.232-0.038,0.347-0.061
			c0.134-0.028,0.265-0.063,0.397-0.097c0.113-0.03,0.227-0.058,0.341-0.093c0.132-0.041,0.261-0.089,0.39-0.137
			c0.11-0.04,0.22-0.078,0.328-0.123c0.13-0.055,0.259-0.117,0.387-0.179c0.104-0.05,0.208-0.096,0.309-0.15
			c0.133-0.07,0.26-0.151,0.389-0.23c0.093-0.057,0.188-0.109,0.278-0.169c0.14-0.094,0.275-0.197,0.41-0.301
			c0.074-0.056,0.152-0.108,0.224-0.167c0.205-0.167,0.404-0.346,0.596-0.537l59.941-59.725l32.233-32.117v132.917
			c-0.072,0.024-0.14,0.055-0.212,0.079c-0.534,0.181-1.062,0.376-1.58,0.591c-0.047,0.019-0.097,0.037-0.144,0.057
			c-0.548,0.231-1.083,0.485-1.611,0.751c-0.117,0.059-0.234,0.119-0.351,0.18c-0.518,0.272-1.029,0.557-1.526,0.862
			c-0.069,0.042-0.134,0.087-0.203,0.129c-0.455,0.286-0.9,0.585-1.336,0.897c-0.092,0.066-0.184,0.129-0.275,0.195
			c-0.465,0.342-0.916,0.7-1.356,1.07c-0.096,0.081-0.189,0.164-0.283,0.246c-0.423,0.366-0.835,0.744-1.233,1.137
			c-0.028,0.028-0.059,0.055-0.087,0.083c-0.415,0.414-0.812,0.845-1.198,1.287c-0.087,0.099-0.174,0.198-0.259,0.299
			c-0.374,0.441-0.737,0.893-1.082,1.357c-0.053,0.071-0.103,0.146-0.155,0.219c-0.313,0.43-0.61,0.871-0.897,1.32
			c-0.058,0.091-0.117,0.18-0.175,0.272c-0.305,0.493-0.592,0.997-0.863,1.51c-0.059,0.113-0.116,0.226-0.175,0.341
			c-0.263,0.516-0.515,1.04-0.744,1.576c-0.009,0.021-0.019,0.041-0.028,0.061c-0.234,0.55-0.442,1.113-0.638,1.683
			c-0.043,0.124-0.085,0.248-0.126,0.373c-0.184,0.563-0.351,1.132-0.498,1.711c-0.024,0.094-0.043,0.19-0.066,0.284
			c-0.128,0.535-0.239,1.075-0.333,1.621c-0.017,0.102-0.038,0.203-0.055,0.305c-0.096,0.597-0.168,1.201-0.222,1.81
			c-0.012,0.133-0.021,0.265-0.03,0.398c-0.046,0.628-0.078,1.262-0.078,1.903c0,0.64,0.031,1.274,0.078,1.902
			c0.01,0.133,0.018,0.265,0.03,0.398c0.054,0.61,0.126,1.214,0.222,1.811c0.016,0.101,0.037,0.202,0.054,0.303
			c0.094,0.548,0.206,1.089,0.334,1.624c0.023,0.094,0.042,0.188,0.065,0.281c0.146,0.58,0.314,1.15,0.498,1.713
			c0.041,0.124,0.083,0.247,0.126,0.371c0.196,0.57,0.405,1.134,0.639,1.685c0.008,0.019,0.017,0.038,0.026,0.057
			c0.23,0.538,0.482,1.063,0.747,1.581c0.057,0.112,0.114,0.225,0.172,0.337c0.272,0.514,0.559,1.02,0.864,1.513
			c0.056,0.091,0.115,0.179,0.172,0.268c0.287,0.451,0.585,0.893,0.899,1.324c0.052,0.072,0.101,0.146,0.154,0.217
			c0.345,0.466,0.708,0.917,1.083,1.358c0.085,0.1,0.171,0.199,0.259,0.297c0.386,0.441,0.783,0.873,1.198,1.287
			c0.028,0.028,0.058,0.055,0.087,0.083c0.398,0.393,0.811,0.77,1.233,1.137c0.095,0.082,0.189,0.166,0.285,0.247
			c0.44,0.371,0.891,0.729,1.355,1.07c0.091,0.067,0.184,0.13,0.276,0.196c0.434,0.31,0.876,0.609,1.33,0.894
			c0.07,0.044,0.138,0.091,0.208,0.134c0.497,0.305,1.006,0.59,1.523,0.86c0.117,0.061,0.236,0.122,0.355,0.182
			c0.527,0.266,1.062,0.52,1.609,0.75c0.047,0.021,0.097,0.038,0.144,0.057c0.518,0.215,1.047,0.41,1.581,0.591
			c0.071,0.024,0.139,0.055,0.21,0.079v28.478H137.432c-4.466,0-8.084,3.62-8.084,8.084c0,4.465,3.619,8.084,8.084,8.084h340.585
			v31.852h-65.005c-4.466,0-8.084,3.62-8.084,8.084c0,4.465,3.618,8.084,8.084,8.084H486.1c4.466,0,8.084-3.62,8.084-8.084v-48.02
			v-36.57C504.517,328.267,512,318.528,512,307.07C512,295.615,504.517,285.878,494.185,282.473z M35.632,307.073
			c0,5.366-4.365,9.731-9.731,9.731c-5.366,0-9.732-4.365-9.732-9.731c0-5.366,4.365-9.731,9.731-9.731
			C31.265,297.342,35.632,301.708,35.632,307.073z M132.301,224.687l-49.703-49.525l49.805-66.642l58.743,66.175L132.301,224.687z
			 M379.699,224.684l-58.845-49.991l58.743-66.175l49.805,66.642L379.699,224.684z M486.1,316.805c-5.367,0-9.731-4.365-9.731-9.731
			c0-5.366,4.365-9.731,9.731-9.731c5.366,0,9.731,4.365,9.731,9.731S491.466,316.805,486.1,316.805z"/>
	</g>
</g>
<g>
</g>
<g>
</g>
<g>
</g>
<g>
</g>
<g>
</g>
<g>
</g>
<g>
</g>
<g>
</g>
<g>
</g>
<g>
</g>
<g>
</g>
<g>
</g>
<g>
</g>
<g>
</g>
<g>
</g>
</svg>
