<svg id="Layer_1" enable-background="new 0 0 58 58" height="512" viewBox="0 0 58 58" width="512" xmlns="http://www.w3.org/2000/svg"><path d="m29 43c4.962 0 9-4.038 9-9 0-.768-.102-1.552-.302-2.33-.088-.341-.349-.611-.688-.71-.337-.101-.704-.014-.962.227-.562.524-1.29.813-2.048.813-1.654 0-3-1.346-3-3 0-.758.289-1.486.812-2.049.24-.258.326-.624.227-.962s-.369-.6-.71-.688c-.777-.199-1.561-.301-2.329-.301-4.962 0-9 4.038-9 9s4.038 9 9 9zm0-16c.137 0 .275.004.414.013-.271.622-.414 1.297-.414 1.987 0 2.757 2.243 5 5 5 .69 0 1.365-.143 1.987-.414.009.139.013.277.013.414 0 3.86-3.14 7-7 7s-7-3.14-7-7 3.14-7 7-7z"/><path d="m57.814 33.419c-.421-.589-10.51-14.419-28.814-14.419s-28.393 13.83-28.814 14.419c-.248.348-.248.814 0 1.162.087.123 2.189 3.037 6.188 6.239.431.345 1.06.275 1.406-.156.345-.431.275-1.061-.156-1.406-2.746-2.198-4.566-4.28-5.358-5.258 1.627-2 7.593-8.631 17.198-11.572-3.335 2.754-5.464 6.919-5.464 11.572 0 8.271 6.729 15 15 15s15-6.729 15-15c0-4.649-2.126-8.811-5.457-11.564 9.585 2.945 15.56 9.568 17.19 11.566-.793.979-2.613 3.059-5.358 5.257-.431.345-.501.975-.156 1.406.198.247.488.375.781.375.219 0 .44-.072.625-.219 4-3.202 6.101-6.117 6.188-6.239.249-.349.249-.815.001-1.163zm-15.814.581c0 7.168-5.832 13-13 13s-13-5.832-13-13 5.832-13 13-13 13 5.831 13 13z"/><path d="m8.686 23.921c4.24-3.157 11.206-6.921 20.314-6.921s16.074 3.764 20.314 6.921c.179.133.389.198.596.198.305 0 .607-.139.803-.403.33-.443.238-1.069-.205-1.399-.813-.606-1.724-1.232-2.724-1.852l1.622-2.815c.276-.479.112-1.09-.367-1.366-.48-.277-1.091-.111-1.366.367l-1.618 2.808c-1.981-1.09-4.25-2.107-6.792-2.896l.992-3.693c.143-.533-.173-1.082-.707-1.225-.533-.142-1.081.173-1.225.707l-.985 3.668c-2.26-.561-4.714-.918-7.339-.994v-5.026c0-.552-.448-1-1-1s-1 .448-1 1v5.026c-2.625.076-5.08.432-7.339.994l-.985-3.668c-.144-.533-.69-.849-1.225-.707-.534.143-.85.692-.707 1.225l.992 3.693c-2.541.788-4.811 1.805-6.792 2.896l-1.618-2.808c-.276-.478-.887-.644-1.366-.367-.479.275-.643.887-.367 1.366l1.622 2.815c-1 .62-1.911 1.247-2.724 1.852-.443.33-.535.957-.205 1.399.332.444.959.535 1.401.205z"/></svg>