<svg id="Capa_1" enable-background="new 0 0 512 512" height="512" viewBox="0 0 512 512" width="512" xmlns="http://www.w3.org/2000/svg"><g><path d="m232.2 508.626c15.418 4.454 31.874 4.543 47.599 0 21.392-6.181 54.047-17.828 88.13-38.221 3.554-2.127 4.711-6.732 2.585-10.287-2.127-3.556-6.734-4.711-10.287-2.585-32.702 19.567-64.051 30.748-84.591 36.682-12.845 3.712-26.426 3.712-39.273 0-38.115-11.012-109.578-38.762-159.957-100.901-22.749-28.06-35.278-63.68-35.278-100.299v-234.618c.001-23.929 19.468-43.397 43.397-43.397h342.949c23.929 0 43.397 19.468 43.397 43.397v234.618c0 36.618-12.529 72.239-35.278 100.299-14.128 17.425-31.103 33.468-50.456 47.685-3.338 2.452-4.057 7.146-1.604 10.485 2.453 3.338 7.146 4.056 10.484 1.604 20.385-14.975 38.293-31.906 53.227-50.327 24.909-30.723 38.626-69.698 38.626-109.745v-234.619c0-32.2-26.197-58.397-58.397-58.397h-342.948c-32.2 0-58.397 26.197-58.397 58.397v234.618c0 40.048 13.718 79.023 38.626 109.745 52.959 65.321 127.642 94.366 167.446 105.866z"/><path d="m89.449 148.767c-4.142 0-7.5 3.358-7.5 7.5v136.747c0 27.29 9.292 53.78 26.166 74.592 44.976 55.474 112.595 79.597 139.578 87.393 5.407 1.563 11.164 1.575 16.614 0 26.985-7.796 94.604-31.919 139.579-87.393 16.873-20.812 26.166-47.303 26.166-74.592v-229.694c0-4.142-3.358-7.5-7.5-7.5h-333.103c-4.142 0-7.5 3.358-7.5 7.5v62.948c0 4.142 3.358 7.5 7.5 7.5s7.5-3.358 7.5-7.5v-55.448h318.103v222.195c0 23.861-8.103 46.996-22.817 65.145-42.299 52.172-106.466 75.025-132.091 82.429-2.697.779-5.59.779-8.286 0-25.624-7.404-89.792-30.256-132.092-82.429-14.714-18.149-22.817-41.284-22.817-65.145v-136.748c0-4.142-3.358-7.5-7.5-7.5z"/><path d="m379.345 213.74c13.679-8.348 17.618-26.643 8.497-39.781-17.96-25.874-46.845-35.237-81.781-26.722-5.943-10.745-14.788-21.635-27.709-31.903-13.161-10.458-31.542-10.458-44.701 0-12.921 10.268-21.767 21.158-27.71 31.903-34.937-8.515-63.822.849-81.781 26.722-9.105 13.117-5.208 31.418 8.497 39.781 12.381 7.556 29.572 20.919 42.505 42.04-.538 2.557-.826 5.205-.826 7.92 0 9.946 3.803 19.02 10.03 25.846-9.611 10.996-14.811 25.382-14.341 40.062.389 12.172 9.961 23.535 25.338 23.535 11.771 0 23.269-3.631 32.89-10.229 2.913 5.304 6.648 10.173 11.126 14.374 4.661 4.372 10.64 6.558 16.621 6.558 5.98 0 11.961-2.186 16.621-6.557 4.478-4.201 8.214-9.07 11.127-14.374 10.178 6.98 22.381 10.594 34.723 10.199 12.772-.409 23.097-10.734 23.505-23.506.469-14.68-4.73-29.065-14.341-40.061 6.227-6.827 10.031-15.9 10.031-25.846 0-2.715-.288-5.363-.826-7.92 12.933-21.123 30.124-34.485 42.505-42.041zm-80.067 73.348c-25.763 0-59.927 0-86.557 0-12.772 0-23.387-10.38-23.387-23.388 0-12.734 10.336-23.388 23.386-23.388h.001 86.556c13.021 0 23.388 10.628 23.388 23.388.001 12.86-10.475 23.388-23.387 23.388zm-56.296-160.011c7.664-6.092 18.371-6.091 26.036 0 11.101 8.823 20.398 19.322 26.343 32.132 13.227 28.45 3.562 56.224-.782 66.104h-77.158c-4.351-9.895-14.006-37.662-.783-66.104 5.981-12.875 15.28-23.339 26.344-32.132zm-102.512 73.859c-6.356-3.879-8.19-12.372-3.989-18.425 12.331-17.765 29.149-23.339 45.402-23.339 6.099 0 12.122.786 17.794 2.006-9.493 27.358-2.976 52.491 2.121 65.693-7.622 2.235-14.314 6.772-19.196 12.963-13.624-19.03-29.97-31.475-42.132-38.898zm82.154 127.501c-8.036 6.607-18.035 10.022-28.616 9.684-4.886-.156-8.836-4.106-8.993-8.993-.367-11.476 3.691-22.294 11.457-30.641 4.928 2.302 10.559 3.601 16.249 3.601h9.761c-1.907 8.391-1.905 17.762.142 26.349zm39.735 17.912c-3.566 3.345-9.153 3.345-12.718 0-5.299-4.971-9.146-11.011-11.371-17.66-.019-.062-.027-.125-.048-.187-2.707-8.173-3-17.536-.204-26.414h35.963c2.741 8.701 2.565 18.054-.204 26.414-.02.061-.029.124-.047.186-2.224 6.649-6.072 12.69-11.371 17.661zm64.625-17.221c-.156 4.887-4.106 8.837-8.993 8.993-10.569.34-20.579-3.077-28.616-9.684 1.998-8.38 2.14-17.559.141-26.349h9.762c5.649 0 11.327-1.293 16.248-3.601 7.766 8.346 11.825 19.164 11.458 30.641zm2.413-89.293c-4.882-6.191-11.574-10.727-19.196-12.963 5.096-13.202 11.614-38.335 2.121-65.693 20.787-4.474 46.237-3.099 63.197 21.332 4.195 6.044 2.374 14.541-3.989 18.425-12.162 7.423-28.508 19.867-42.133 38.899z"/></g></svg>