<svg id="Capa_1" enable-background="new 0 0 512 512" height="512" viewBox="0 0 512 512" width="512" xmlns="http://www.w3.org/2000/svg"><g><path d="m512 161.089c0-24.899-19.466-45.156-43.393-45.156-23.928 0-43.393 20.257-43.393 45.156 0 11.51 4.163 22.412 11.585 30.716-12.827 24.524-26.055 38.912-42.833 45.608-3.29-15.777-5.237-34.518-5.911-56.943 8.687-8.824 12.633-21.333 10.834-33.69-.597-4.1-4.42-6.944-8.501-6.343-4.1.596-6.939 4.402-6.343 8.501 1.241 8.562-1.861 17.137-8.384 22.579-1.757 1.465-2.748 3.652-2.693 5.939.605 25.175 2.727 46.132 6.464 63.758-10.287 1.461-23.97.988-34.874-1.752 3.515-17.26 5.518-37.634 6.104-62.007.055-2.287-.937-4.474-2.693-5.939-5.497-4.586-8.65-11.467-8.65-18.878 0-15.074 12.969-26.46 26.903-23.51 4.051.852 8.032-1.734 8.89-5.786.857-4.053-1.733-8.033-5.786-8.89-23.319-4.929-45.007 13.662-45.007 38.186 0 10.577 4.062 20.524 11.256 27.832-.629 20.922-2.363 38.606-5.263 53.695-25.962-13.212-38.646-42.755-45.233-71.155 9.038-8.512 14.314-20.7 14.314-33.503 0-24.899-19.466-45.156-43.394-45.156-23.927 0-43.393 20.257-43.393 45.156 0 12.803 5.275 24.992 14.313 33.503-6.588 28.402-19.272 57.943-45.233 71.155-2.9-15.089-4.634-32.773-5.263-53.695 7.195-7.309 11.257-17.255 11.257-27.832 0-21.488-16.82-38.969-37.496-38.969s-37.496 17.482-37.496 38.969c0 10.577 4.062 20.524 11.256 27.832-.674 22.425-2.62 41.166-5.911 56.943-16.778-6.696-30.007-21.084-42.833-45.608 7.422-8.305 11.585-19.207 11.585-30.716 0-24.899-19.466-45.156-43.393-45.156-23.926 0-43.392 20.257-43.392 45.156 0 20.016 12.534 37.335 30.483 43.116l7.544 48.579c-11.021 5.896-18.355 19.016-16.548 33.735 1.919 15.635 13.348 26.904 26.319 29.176l2.794 17.994c-13.108 3.062-24.008 13.165-27.427 27.122-4.841 19.771 7.239 39.692 27.013 44.534 7.226 1.77 15.307 3.507 24.017 5.164 4.072.771 7.995-1.897 8.77-5.967.773-4.069-1.897-7.995-5.967-8.769-8.456-1.608-16.279-3.289-23.252-4.997-11.719-2.87-18.882-14.675-16.011-26.396 2.868-11.715 14.665-18.887 26.394-16.01 50.369 12.334 139.875 20.62 191.871 20.62s141.502-8.286 191.872-20.62c11.719-2.866 23.523 4.284 26.393 16.011 2.871 11.719-4.29 23.525-16.011 26.396-55.168 13.51-147.94 21.873-202.255 21.873-39.622 0-95.761-4.313-143.021-10.988-4.098-.581-7.896 2.276-8.476 6.377-.579 4.101 2.276 7.896 6.378 8.475 47.894 6.765 104.856 11.136 145.118 11.136 55.185 0 149.568-8.527 205.823-22.304 19.77-4.841 31.855-24.759 27.013-44.533-3.408-13.919-14.283-24.05-27.428-27.12l2.795-17.997c12.982-2.274 24.401-13.556 26.319-29.175 1.807-14.721-5.529-27.84-16.548-33.735l7.543-48.579c17.951-5.783 30.485-23.102 30.485-43.118zm-361.814-32.42c12.404 0 22.496 10.753 22.496 23.969 0 7.411-3.153 14.292-8.65 18.878-1.757 1.465-2.748 3.652-2.693 5.939.586 24.373 2.589 44.747 6.104 62.007-10.859 2.728-24.535 3.22-34.874 1.752 3.737-17.627 5.859-38.584 6.464-63.758.055-2.287-.936-4.474-2.693-5.939-5.497-4.586-8.649-11.467-8.649-18.878-.002-13.218 10.09-23.97 22.495-23.97zm-95.572 172.357c-8.388 1.032-16.952-5.771-18.247-16.335-1.304-10.62 5.412-19.24 13.754-20.265 9.042-1.109 17.04 6.493 18.248 16.335 1.239 10.091-4.931 19.182-13.755 20.265zm421.019-16.335c-1.299 10.592-9.886 17.364-18.247 16.335-8.823-1.083-14.994-10.174-13.755-20.265 1.238-10.091 9.426-17.415 18.248-16.335 8.42 1.035 15.046 9.74 13.754 20.265zm-2.129-93.904c-3.135.579-5.561 3.075-6.05 6.225l-8.126 52.328c-15.264.432-28.533 12.877-30.586 29.594v.001c-1.956 15.934 6.913 30.566 20.482 35.465l-2.947 18.976c-.659.125-1.318.263-1.975.424-49.316 12.076-137.18 20.189-188.302 20.189s-138.986-8.113-188.301-20.189c-.658-.161-1.317-.3-1.977-.425l-2.946-18.975c13.569-4.899 22.438-19.532 20.482-35.465 0-.001 0-.001 0-.001-2.054-16.717-15.326-29.168-30.586-29.596l-8.125-52.326c-.489-3.149-2.915-5.646-6.05-6.225-13.615-2.513-23.497-15.003-23.497-29.698 0-16.628 12.737-30.156 28.394-30.156 15.655 0 28.393 13.528 28.393 30.156 0 9.179-3.874 17.751-10.629 23.516-2.613 2.231-3.377 5.953-1.853 9.033 18.927 38.222 42.047 63.374 85.035 63.374 14.206 0 35.374-1.683 55.109-16.237 20.756-15.307 35.261-41.892 43.113-79.018.605-2.861-.509-5.813-2.852-7.563-7.578-5.656-12.103-14.884-12.103-24.687 0-16.628 12.737-30.156 28.393-30.156s28.394 13.528 28.394 30.156c0 9.802-4.524 19.03-12.104 24.687-2.344 1.749-3.458 4.701-2.853 7.563 7.853 37.126 22.357 63.712 43.113 79.018 19.735 14.554 40.903 16.237 55.109 16.237 42.995 0 66.114-25.163 85.035-63.374 1.524-3.08.761-6.802-1.853-9.033-6.755-5.766-10.629-14.337-10.629-23.516 0-16.628 12.737-30.156 28.393-30.156 15.655 0 28.393 13.528 28.393 30.156.002 14.695-9.88 27.185-23.494 29.698zm-331.369 84.439c-13.869 0-25.152 11.657-25.152 25.986s11.283 25.987 25.152 25.987 25.152-11.658 25.152-25.987-11.283-25.986-25.152-25.986zm0 36.973c-5.598 0-10.152-4.929-10.152-10.987s4.555-10.986 10.152-10.986c5.598 0 10.152 4.928 10.152 10.986s-4.555 10.987-10.152 10.987zm227.73-36.973c-13.869 0-25.152 11.657-25.152 25.986s11.283 25.987 25.152 25.987 25.152-11.658 25.152-25.987-11.283-25.986-25.152-25.986zm0 36.973c-5.598 0-10.152-4.929-10.152-10.987s4.555-10.986 10.152-10.986c5.598 0 10.152 4.928 10.152 10.986s-4.554 10.987-10.152 10.987zm-113.865-55.353c-17.16 0-31.121 15-31.121 33.438 0 18.437 13.961 33.437 31.121 33.437s31.121-15 31.121-33.437c0-18.438-13.961-33.438-31.121-33.438zm0 51.875c-8.89 0-16.121-8.271-16.121-18.437 0-10.167 7.231-18.438 16.121-18.438s16.121 8.271 16.121 18.438c0 10.166-7.231 18.437-16.121 18.437z"/></g></svg>